<svg xmlns="http://www.w3.org/2000/svg" version="1.1" xmlns:xlink="http://www.w3.org/1999/xlink" xmlns:svgjs="http://svgjs.com/svgjs" width="512" height="512"><svg xmlns:dc="http://purl.org/dc/elements/1.1/" xmlns:cc="http://creativecommons.org/ns#" xmlns:rdf="http://www.w3.org/1999/02/22-rdf-syntax-ns#" xmlns:svg="http://www.w3.org/2000/svg" xmlns="http://www.w3.org/2000/svg" version="1.1" id="SvgjsSvg1006" xml:space="preserve" width="512" height="512" viewBox="0 0 512 511.99999"><metadata id="SvgjsMetadata1005"><rdf:rdf><cc:work rdf:about=""><dc:format>image/svg+xml</dc:format><dc:type rdf:resource="http://purl.org/dc/dcmitype/StillImage"></dc:type><dc:title></dc:title></cc:work></rdf:rdf></metadata><defs id="SvgjsDefs1004"></defs><g transform="translate(-16,417.14667)" id="SvgjsG1003"><rect style="opacity:1;fill:none;fill-opacity:1;stroke:none;stroke-width:3.05437756;stroke-miterlimit:4;stroke-dasharray:none;stroke-opacity:1" id="SvgjsRect1002" width="512" height="512" x="16.275229" y="-414.82251"></rect><g id="SvgjsG1001" transform="matrix(4.996643,0,0,4.996643,-87.297681,-373.63935)"><path d="m 89.818798,77.458532 c 0,0 -2.153734,0.485467 -2.4104,0.5156 -0.107334,2.031333 1.0952,2.75 1.292666,4.4776 1.078667,0.04067 1.769734,0.466133 2.754667,0.6032 0.06147,-0.436533 -0.09427,-0.652667 -0.2584,-0.862 l -0.344667,-2.324533 c -0.201066,-0.602534 -0.417733,-1.188534 -0.430266,-1.980134 0,0 -0.375467,-0.533866 -0.6036,-0.429733 z M 44.872932,75.907465 c -0.1756,3.031334 2.1416,3.366134 2.066667,6.1136 0.573466,0.145867 1.0812,0.354134 1.2916,0.8604 -0.06347,0.136934 -0.4208,-0.01933 -0.344267,0.259334 0.243333,-0.01453 0.200533,0.257866 0.429733,0.257866 0.861467,-1.3204 3.114,-1.248933 4.9084,-1.635466 -0.3896,-0.385334 -0.5152,-1.033867 -1.119866,-1.205734 l -0.429734,-0.08587 c 0,0 -0.600933,-0.3464 -1.1192,-0.776134 l -0.516666,-0.5156 -2.239067,-1.895866 c 0,0 -1.047467,-1.104134 -1.807866,-1.979067 -0.02027,0.1624 -0.445734,0.1588 -0.689067,0.171867 -0.0604,0.3812 -0.188,0.417733 -0.430667,0.430666 z M 80.396931,20.037333 C 79.570798,17.872 74.903065,18.104 72.943198,16.410667 c -4.638,1.084 -8.8984,-4.096 -14.723466,-2.238667 -0.990533,3.270667 1.180267,5.953333 1.2048,8.265333 0,0 3.884266,7.724267 4.735333,11.366 2.108933,9.014533 8.3928,13.233333 13.174533,19.545866 2.084933,-5.387066 7.6448,-9.656266 9.385333,-15.498933 1.920933,-6.4464 -0.3348,-13.639066 -4.3916,-16.187599 0,0 -1.422933,-1.004 -1.9312,-1.625334 z M 73.201598,14.688 c 1.585867,-2.682666 6.478667,-0.961333 9.730133,-0.688 10.108933,-3.836 16.530267,4.66 17.305729,13.776267 5.06467,4.348933 7.7584,11.070266 7.92187,20.320266 4.086,4.403733 3.61773,13.354133 8.09373,17.221333 1.26307,1.0912 6.13707,4.828133 1.37814,5.854266 -5.75,1.239467 -9.7728,-5.0772 -11.9692,-8.523466 -1.58387,7.1276 -12.622402,10.757733 -8.438002,18.769199 3.222402,1.513067 9.676002,0.254267 11.107732,3.2724 -0.56347,0.0756 -0.65307,-0.322933 -1.03227,-0.4296 0.0563,0.710933 -1.8844,0.566133 -2.67026,0.4296 -0.18547,0.07293 -0.0724,0.4428 -0.2584,0.515733 -0.814,-0.03133 -2.2568,0.08853 -3.01347,-0.257866 -0.25947,0.119733 0.17867,0.447866 -0.086,0.602533 -1.601066,0.2204 -2.856266,-0.352533 -3.960932,-0.344667 -0.263467,0.187467 0.08227,0.485334 0,0.776 -6.034934,-0.466133 -14.508267,0.799467 -14.120267,-6.372399 -1.8032,1.182266 -4.047466,3.1016 -4.047466,3.1016 -1.8604,2.094799 -8.143733,1.322799 -10.935333,0.946266 7.835866,-3.1 7.320266,-14.792666 9.212933,-22.904666 -0.247867,-0.210933 -0.547867,-0.3688 -0.689067,-0.687467 -2.1724,4.716134 -3.009333,10.7656 -6.112933,14.552 -1.575067,0.145867 -1.875067,-0.554667 -1.721867,-2.239467 0.450534,-4.971466 3.901467,-10.316666 5.596267,-14.207333 -1.345333,-1.525999 -4.653067,-3.821333 -8.523867,-5.080799 -1.1604,3.420933 -0.8844,7.743866 -1.205733,12.228133 -0.366667,5.127599 -2.351067,16.054799 -5.425066,18.339599 -0.8776,0.652667 -2.6364,0.540667 -3.959867,0.6032 -0.402667,0.08427 -0.288533,0.687467 -0.861467,0.601467 -0.339066,0.05213 -0.1016,-0.471334 -0.171866,-0.689067 -1.8068,0.03133 -3.7516,-0.07653 -5.425067,0.0876 -0.2276,-0.190133 -0.137467,-0.369867 -0.08533,-0.690133 -3.8552,0.330666 -7.807867,0.05573 -11.624533,0.171866 -0.368134,-2.013066 1.687466,-2.324533 2.9276,-3.013066 1.766666,-10.8672 -7.5812,-21.609333 -1.464,-32.632799 -5.205734,6.976533 -9.2828,14.964666 -13.690133,22.903732 C 23.394799,57.076799 35.979732,49.028799 38.846399,38.883066 41.627066,29.036667 42.471866,21.368 43.581732,10.382667 c 1.9876,-12.7866664 19.068266,-13.9879997 23.419866,-2.3253333 0.832267,2.2293333 4.635334,3.1120003 5.768667,5.0813333 0.15,0.509333 0.4032,0.916 0.431333,1.549333" style="fill:#000000;fill-opacity:1;fill-rule:evenodd;stroke:none;stroke-width:0.13333333" id="SvgjsPath1000"></path></g></g></svg><style>@media (prefers-color-scheme: light) { :root { filter: none; } }
@media (prefers-color-scheme: dark) { :root { filter: invert(100%); } }
</style></svg>