<?xml version="1.0" standalone="no"?>
<!DOCTYPE svg PUBLIC "-//W3C//DTD SVG 20010904//EN"
 "http://www.w3.org/TR/2001/REC-SVG-20010904/DTD/svg10.dtd">
<svg version="1.0" xmlns="http://www.w3.org/2000/svg"
 width="512.000000pt" height="512.000000pt" viewBox="0 0 512.000000 512.000000"
 preserveAspectRatio="xMidYMid meet">
<metadata>
Created by potrace 1.14, written by Peter Selinger 2001-2017
</metadata>
<g transform="translate(0.000000,512.000000) scale(0.100000,-0.100000)"
fill="#000000" stroke="none">
<path d="M1635 4699 c-171 -28 -332 -139 -414 -283 -56 -98 -71 -165 -106
-481 -53 -474 -91 -701 -171 -1020 -69 -276 -112 -364 -334 -685 -155 -224
-214 -318 -273 -436 -92 -184 -129 -337 -125 -514 l3 -115 104 190 c145 265
289 515 370 645 78 123 185 279 189 276 1 -2 -8 -27 -22 -57 -44 -101 -60
-185 -60 -324 -1 -158 8 -209 90 -539 73 -290 94 -411 94 -537 0 -136 -2 -141
-74 -176 -46 -23 -66 -39 -76 -62 -25 -62 -30 -61 285 -57 236 3 285 1 285
-10 0 -11 28 -14 140 -14 118 0 140 -2 140 -15 0 -19 24 -20 39 -1 7 8 40 15
89 18 45 3 91 12 110 22 80 42 168 251 227 542 37 185 54 333 65 578 10 227
33 394 55 402 19 8 151 -50 241 -105 86 -53 174 -126 174 -144 0 -6 -45 -104
-100 -217 -121 -251 -161 -364 -168 -481 -5 -95 6 -119 56 -119 50 0 125 139
207 385 73 218 117 335 125 335 29 0 29 -32 -5 -241 -70 -433 -95 -537 -163
-679 -41 -84 -152 -205 -210 -229 -58 -24 -20 -34 155 -39 195 -5 263 5 320
48 21 16 79 60 128 99 l90 69 7 -54 c25 -189 151 -245 576 -257 128 -4 132 -3
126 16 -6 19 -3 20 42 13 127 -19 153 -19 159 -4 5 12 20 14 77 10 54 -4 74
-1 82 9 7 9 34 15 71 16 108 4 116 6 112 17 -6 19 -69 56 -121 71 -28 8 -114
21 -190 30 -203 23 -222 29 -248 79 -15 28 -23 66 -26 121 -7 138 29 204 236
434 125 138 176 209 204 285 11 28 21 52 23 54 1 2 29 -37 61 -85 33 -48 97
-127 144 -174 131 -133 246 -181 380 -157 76 13 110 38 110 81 0 45 -25 78
-138 187 -89 85 -104 105 -145 190 -25 52 -71 178 -102 280 -55 184 -112 321
-158 383 -21 27 -26 51 -36 167 -32 363 -128 609 -318 812 -68 72 -69 74 -82
153 -26 159 -86 303 -177 424 -149 199 -384 271 -629 195 -47 -15 -60 -14
-191 5 -78 12 -157 21 -175 21 -51 0 -105 -18 -137 -45 l-29 -24 -11 37 c-15
48 -55 87 -173 165 l-94 62 -47 95 c-26 52 -67 119 -91 148 -135 164 -359 247
-572 211z m545 -712 c41 -14 120 -42 175 -62 80 -30 116 -38 182 -41 50 -1 90
-8 105 -17 12 -8 82 -33 155 -56 121 -38 135 -45 165 -81 18 -23 63 -63 100
-91 124 -93 195 -197 240 -354 33 -116 33 -334 0 -450 -33 -113 -99 -232 -214
-387 -134 -179 -189 -260 -228 -338 l-33 -65 -36 45 c-20 24 -92 107 -161 185
-298 333 -377 459 -454 723 -42 143 -92 270 -180 460 -35 75 -71 169 -81 207
-10 39 -26 102 -37 140 -18 65 -20 176 -4 192 30 30 202 25 306 -10z m-863
-3099 c78 -82 190 -179 233 -199 21 -10 46 -29 55 -41 17 -26 30 -20 -107 -48
-31 -6 -73 -22 -92 -35 -35 -24 -49 -24 -39 1 3 8 -7 21 -25 31 -21 12 -32 27
-36 51 -3 19 -24 65 -47 103 -61 101 -65 189 -9 189 9 0 39 -24 67 -52z m2151
-61 c16 -19 68 -254 59 -263 -3 -3 -33 3 -67 13 l-62 18 -33 85 c-45 113 -45
127 3 139 36 9 71 18 83 20 4 0 11 -5 17 -12z"/>
</g>
</svg>
